<svg width="32" height="32" viewBox="0 0 32 32" fill="none" xmlns="http://www.w3.org/2000/svg">
<path fill-rule="evenodd" clip-rule="evenodd" d="M18.6667 7.99996C18.6667 8.38319 18.7072 8.75698 18.784 9.1173L12.0227 12.498C11.0449 11.3758 9.60532 10.6666 8.00008 10.6666C5.05456 10.6666 2.66675 13.0544 2.66675 16C2.66675 18.9455 5.05456 21.3333 8.00008 21.3333C9.60532 21.3333 11.0449 20.6241 12.0227 19.502L18.784 22.8826C18.7072 23.2429 18.6667 23.6167 18.6667 24C18.6667 26.9455 21.0546 29.3333 24.0001 29.3333C26.9456 29.3333 29.3334 26.9455 29.3334 24C29.3334 21.0544 26.9456 18.6666 24.0001 18.6666C22.3948 18.6666 20.9552 19.3758 19.9775 20.498L13.2162 17.1173C13.293 16.757 13.3334 16.3832 13.3334 16C13.3334 15.6167 13.293 15.2429 13.2162 14.8826L19.9775 11.502C20.9552 12.6241 22.3948 13.3333 24.0001 13.3333C26.9456 13.3333 29.3334 10.9455 29.3334 7.99996C29.3334 5.05444 26.9456 2.66663 24.0001 2.66663C21.0546 2.66663 18.6667 5.05444 18.6667 7.99996ZM10.6667 16C10.6667 17.4727 9.47284 18.6666 8.00008 18.6666C6.52732 18.6666 5.33341 17.4727 5.33341 16C5.33341 14.5272 6.52732 13.3333 8.00008 13.3333C9.47284 13.3333 10.6667 14.5272 10.6667 16ZM24.0001 10.6666C25.4728 10.6666 26.6667 9.47272 26.6667 7.99996C26.6667 6.5272 25.4728 5.33329 24.0001 5.33329C22.5273 5.33329 21.3334 6.5272 21.3334 7.99996C21.3334 9.47272 22.5273 10.6666 24.0001 10.6666ZM26.6667 24C26.6667 25.4727 25.4728 26.6666 24.0001 26.6666C22.5273 26.6666 21.3334 25.4727 21.3334 24C21.3334 22.5272 22.5273 21.3333 24.0001 21.3333C25.4728 21.3333 26.6667 22.5272 26.6667 24Z" fill="white"/>
</svg>
