<svg width="16" height="16" viewBox="0 0 16 16" fill="none" xmlns="http://www.w3.org/2000/svg">
<path fill-rule="evenodd" clip-rule="evenodd" d="M8.00016 1.33325C5.42016 1.33325 3.3335 3.41992 3.3335 5.99992C3.3335 8.77992 6.28016 12.6133 7.4935 14.0733C7.76016 14.3933 8.24683 14.3933 8.5135 14.0733C9.72016 12.6133 12.6668 8.77992 12.6668 5.99992C12.6668 3.41992 10.5802 1.33325 8.00016 1.33325ZM8.00016 7.66658C7.08016 7.66658 6.3335 6.91992 6.3335 5.99992C6.3335 5.07992 7.08016 4.33325 8.00016 4.33325C8.92016 4.33325 9.66683 5.07992 9.66683 5.99992C9.66683 6.91992 8.92016 7.66658 8.00016 7.66658Z" fill="#CCCCCC"/>
</svg>
