<svg width="16" height="16" viewBox="0 0 16 16" fill="none" xmlns="http://www.w3.org/2000/svg">
<path fill-rule="evenodd" clip-rule="evenodd" d="M8.00016 1.33331C5.42016 1.33331 3.3335 3.41998 3.3335 5.99998C3.3335 8.77998 6.28016 12.6133 7.4935 14.0733C7.76016 14.3933 8.24683 14.3933 8.5135 14.0733C9.72016 12.6133 12.6668 8.77998 12.6668 5.99998C12.6668 3.41998 10.5802 1.33331 8.00016 1.33331ZM8.00016 7.66665C7.08016 7.66665 6.3335 6.91998 6.3335 5.99998C6.3335 5.07998 7.08016 4.33331 8.00016 4.33331C8.92016 4.33331 9.66683 5.07998 9.66683 5.99998C9.66683 6.91998 8.92016 7.66665 8.00016 7.66665Z" fill="#CCCCCC"/>
</svg>
