<svg width="32" height="32" viewBox="0 0 32 32" fill="none" xmlns="http://www.w3.org/2000/svg">
<path fill-rule="evenodd" clip-rule="evenodd" d="M16 28.7613L4.68666 17.448C1.56799 14.3293 1.56799 9.25335 4.68666 6.13468C7.80532 3.01468 12.8813 3.01468 16 6.13468C19.1187 3.01468 24.1947 3.01468 27.3133 6.13468C30.432 9.25335 30.432 14.3293 27.3133 17.448L16 28.7613ZM10.3427 6.45734C8.91866 6.45734 7.57866 7.01201 6.57066 8.01868C4.49066 10.0987 4.49066 13.4827 6.57066 15.5613L16 24.9907L25.428 15.5627C27.508 13.4827 27.508 10.0987 25.428 8.02001C23.4133 6.00534 19.9 6.00534 17.8853 8.02001C17.6227 8.28268 17.376 8.60268 17.1333 8.99334L16 10.8227L14.8667 8.99334C14.624 8.60134 14.3773 8.28268 14.1147 8.02001C13.108 7.01201 11.768 6.45734 10.3427 6.45734Z" fill="white"/>
</svg>
