<svg width="120" height="120" viewBox="0 0 120 120" fill="none" xmlns="http://www.w3.org/2000/svg">
<g filter="url(#filter0_d_842_3581)">
<circle cx="60" cy="44" r="24" fill="#A344FF" fill-opacity="0.5"/>
</g>
<path fill-rule="evenodd" clip-rule="evenodd" d="M47.0362 56.9636C45.4959 55.4232 45.0539 53.0736 45.537 49.9907C43.0155 48.1523 41.6665 46.1783 41.6665 44C41.6665 41.8216 43.0155 39.8477 45.537 38.0093C45.0539 34.9263 45.4959 32.5767 47.0362 31.0363C48.5766 29.496 50.9262 29.0541 54.0091 29.5371C55.8475 27.0156 57.8214 25.6666 59.9998 25.6666C62.1782 25.6666 64.1521 27.0156 65.9905 29.5371C69.0735 29.0541 71.4231 29.496 72.9635 31.0363C74.5038 32.5767 74.9457 34.9263 74.4627 38.0093C76.9842 39.8477 78.3332 41.8216 78.3332 44C78.3332 46.1783 76.9842 48.1523 74.4627 49.9907C74.9457 53.0736 74.5038 55.4232 72.9635 56.9636C71.4231 58.5039 69.0735 58.9458 65.9905 58.4628C64.1521 60.9843 62.1782 62.3333 59.9998 62.3333C57.8214 62.3333 55.8475 60.9843 54.0091 58.4628C50.9262 58.9458 48.5766 58.5039 47.0362 56.9636ZM54.4208 54.9966C55.0974 54.8517 55.7931 55.1399 56.169 55.7207C57.6369 57.9888 58.9459 59 59.9998 59C61.0538 59 62.3627 57.9888 63.8307 55.7207C64.2066 55.1399 64.9023 54.8517 65.5789 54.9966C68.2206 55.5624 69.8612 55.3518 70.6064 54.6066C71.3517 53.8613 71.5622 52.2207 70.9965 49.579C70.8516 48.9024 71.1398 48.2067 71.7206 47.8308C73.9886 46.3629 74.9998 45.0539 74.9998 44C74.9998 42.946 73.9886 41.6371 71.7206 40.1691C71.1398 39.7932 70.8516 39.0975 70.9965 38.4209C71.5622 35.7792 71.3517 34.1386 70.6064 33.3934C69.8612 32.6481 68.2206 32.4376 65.5789 33.0033C64.9023 33.1482 64.2066 32.86 63.8307 32.2792C62.3627 30.0112 61.0538 29 59.9998 29C58.9459 29 57.6369 30.0112 56.169 32.2792C55.7931 32.86 55.0974 33.1482 54.4208 33.0033C51.7791 32.4376 50.1385 32.6481 49.3932 33.3934C48.648 34.1386 48.4374 35.7792 49.0032 38.4209C49.1481 39.0975 48.8599 39.7932 48.2791 40.1691C46.011 41.6371 44.9998 42.946 44.9998 44C44.9998 45.0539 46.011 46.3629 48.2791 47.8308C48.8599 48.2067 49.1481 48.9024 49.0032 49.579C48.4374 52.2207 48.648 53.8613 49.3932 54.6066C50.1385 55.3518 51.7791 55.5624 54.4208 54.9966ZM65.488 37.8214L58.3332 44.9763L54.5117 41.1548L52.1547 43.5118L58.3332 49.6903L67.845 40.1785L65.488 37.8214Z" fill="#EBF3FF" fill-opacity="0.25"/>
<defs>
<filter id="filter0_d_842_3581" x="0" y="0" width="120" height="120" filterUnits="userSpaceOnUse" color-interpolation-filters="sRGB">
<feFlood flood-opacity="0" result="BackgroundImageFix"/>
<feColorMatrix in="SourceAlpha" type="matrix" values="0 0 0 0 0 0 0 0 0 0 0 0 0 0 0 0 0 0 127 0" result="hardAlpha"/>
<feOffset dy="16"/>
<feGaussianBlur stdDeviation="18"/>
<feColorMatrix type="matrix" values="0 0 0 0 0.491667 0 0 0 0 0.491667 0 0 0 0 0.491667 0 0 0 0.25 0"/>
<feBlend mode="normal" in2="BackgroundImageFix" result="effect1_dropShadow_842_3581"/>
<feBlend mode="normal" in="SourceGraphic" in2="effect1_dropShadow_842_3581" result="shape"/>
</filter>
</defs>
</svg>
